<?xml version="1.0" encoding="UTF-8"?>
<svg width="157px" height="36px" viewBox="0 0 157 36" version="1.1" xmlns="http://www.w3.org/2000/svg" xmlns:xlink="http://www.w3.org/1999/xlink">
    <!-- Generator: Sketch 55 (78076) - https://sketchapp.com -->
    <title>Buttons/Secondary</title>
    <desc>Created with Sketch.</desc>
    <g id="Page-1" stroke="none" stroke-width="1" fill="none" fill-rule="evenodd">
        <g id="Mockup" transform="translate(-308.000000, -649.000000)">
            <g id="Buttons/Secondary" transform="translate(308.000000, 649.000000)">
                <g>
                    <path d="M0.5,21.9947834 L0.5,32.0052166 C0.5,33.9331881 2.06759189,35.5 3.99897672,35.5 L153.001023,35.5 C154.933809,35.5 156.5,33.937209 156.5,32.0098214 L156.5,3.99017859 C156.5,2.0620792 154.934146,0.5 153.001023,0.5 L3.99897672,0.5 C2.06631974,0.5 0.5,2.0647233 0.5,3.9947834 L0.5,14.0052166 C0.5,15.8319795 0.5,15.8319795 0.5,18.0038347 C0.5,20.1706589 0.5,20.1706589 0.5,21.9947834 Z" id="Bg" stroke="#D9D9D9" fill="#FFFFFF"></path>
                    <text id="Text" font-family="Helvetica" font-size="14.5" font-weight="normal" line-spacing="22" fill="#000000" fill-opacity="0.65">
                        <tspan x="48" y="22">Dashboard</tspan>
                    </text>
                    <g id="pantheon" transform="translate(17.000000, 4.000000)" fill-rule="nonzero">
                        <polygon id="Path" fill="#EFD01B" points="1.54791877 0.0648715486 3.9876183 5.73404255 0.586665289 5.73404255 1.62652114 8.26009311 8.22730584 8.26009311"></polygon>
                        <polygon id="Path" fill="#EFD01B" points="9.009864 19.3861835 7.4349753 19.3861835 5.18356142 14.1354389 3.99560509 14.1354389 6.24495252 19.3861835 2.30357895 19.3861835 9.11002254 27.601869 6.66192054 21.912234 10.0611889 21.912234"></polygon>
                        <path d="M11.5577402,16.0327926 C11.5600211,16.0327926 11.5635655,16.0315614 11.5713759,16.0252111 C11.5903493,16.0097848 11.6116783,15.9785098 11.6327137,15.9270342 C11.6951027,15.7743632 11.7323565,15.5004178 11.7323565,15.0846277 C11.7323565,14.6690324 11.6947372,14.3949446 11.631775,14.2419394 C11.6105328,14.1903186 11.5889701,14.1588636 11.5697306,14.14326 C11.5616958,14.1367437 11.5579459,14.1354389 11.5556737,14.1354389 L5.92564415,14.1354389 L6.73791852,16.0327926 L11.5577402,16.0327926 Z" id="Path" fill="#000000"></path>
                        <path d="M11.1351481,18.5526994 C11.1370822,18.5526994 11.1405065,18.5515037 11.1482846,18.5451695 C11.167297,18.5296865 11.1886768,18.4983574 11.2097638,18.4468687 C11.2723558,18.294036 11.3097644,18.0200899 11.3097644,17.6045346 C11.3097644,17.1894302 11.2718419,16.9155711 11.2084916,16.7625613 C11.1871751,16.7110755 11.1655586,16.6796658 11.1462946,16.6640536 C11.1383428,16.6576092 11.1347971,16.6563697 11.1330816,16.6563697 L7.00347558,16.6563697 L7.81757226,18.5526994 L11.1351481,18.5526994 Z" id="Path" fill="#000000"></path>
                        <path d="M11.1330816,10.9919548 C11.1350092,10.9919548 11.1384206,10.990763 11.1461926,10.9844297 C11.1652079,10.9689341 11.1865934,10.9375717 11.2076853,10.8860254 C11.2702865,10.7330345 11.3076979,10.4587917 11.3076979,10.042766 C11.3076979,9.62676823 11.2702924,9.35275213 11.2077093,9.20007724 C11.186646,9.14869206 11.1653084,9.11748266 11.1463468,9.1020916 C11.1385925,9.09579756 11.1351469,9.09460106 11.1330816,9.09460106 L6.54558372,9.09460106 L7.35785808,10.9919548 L11.1330816,10.9919548 Z" id="Path" fill="#000000"></path>
                        <path d="M11.5556737,13.5118617 C11.5579481,13.5118617 11.5614796,13.5106345 11.5692838,13.5042851 C11.5882603,13.4888462 11.6095949,13.4575379 11.6306353,13.4060046 C11.6930335,13.2531756 11.73029,12.9789337 11.73029,12.5626728 C11.73029,12.1466752 11.6928845,11.8726591 11.6303015,11.7199841 C11.6092382,11.668599 11.5879006,11.6373896 11.5689389,11.6219985 C11.5611847,11.6157045 11.557739,11.614508 11.5556737,11.614508 L7.6253118,11.614508 L8.43758616,13.5118617 L11.5556737,13.5118617 Z" id="Path" fill="#000000"></path>
                        <path d="M3.83630978,10.9909309 L4.57741682,10.9909309 L5.65714492,13.5118617 L7.72533294,13.5118617 L5.83139691,9.09460106 L0.956773416,9.09460106 C0.512434867,9.09460106 0.427941831,9.14221911 0.293873416,9.56961803 C0.111553437,10.1459858 0.0692265864,11.0720645 0.0692265864,13.8231383 C0.0692265864,16.5641645 0.112140718,17.49926 0.29394687,18.0768918 C0.427941831,18.5040575 0.512434867,18.5516755 0.956773416,18.5516755 L5.14054102,18.5516755 L2.99141714,13.5098138 L4.91516077,13.5098138 L3.83630978,10.9909309 Z" id="Path" fill="#000000"></path>
                    </g>
                </g>
            </g>
        </g>
    </g>
</svg>